<?xml version="1.0" encoding="utf-8"?>
<!-- Generator: Adobe Illustrator 19.1.0, SVG Export Plug-In . SVG Version: 6.00 Build 0)  -->
<svg version="1.1" id="Layer_1" xmlns="http://www.w3.org/2000/svg" xmlns:xlink="http://www.w3.org/1999/xlink" x="0px" y="0px"
	 viewBox="0 0 216 172.8" style="enable-background:new 0 0 216 172.8;" xml:space="preserve">
<style type="text/css">
	.st0{fill:url(#SVGID_1_);}
	.st1{clip-path:url(#SVGID_3_);fill:url(#SVGID_4_);}
	.st2{clip-path:url(#SVGID_3_);fill:url(#SVGID_5_);}
	.st3{fill:url(#SVGID_6_);}
	.st4{fill:url(#SVGID_7_);stroke:#786148;stroke-miterlimit:10;}
</style>
<linearGradient id="SVGID_1_" gradientUnits="userSpaceOnUse" x1="119.1378" y1="45.4601" x2="78.1641" y2="116.4287">
	<stop  offset="0" style="stop-color:#E6E6E6"/>
	<stop  offset="1" style="stop-color:#808080"/>
</linearGradient>
<path class="st0" d="M49.3,5.1c-9.8-5.7-27,5.6-38.3,25.3C-0.4,50-1.6,70.5,8.2,76.2l157.5,91l41-71.1L49.3,5.1z"/>
<g>
	<defs>
		<path id="SVGID_2_" d="M49.3,5.1c-9.8-5.7-27,5.6-38.3,25.3C-0.4,50-1.6,70.5,8.2,76.2l157.5,91l41-71.1L49.3,5.1z"/>
	</defs>
	<clipPath id="SVGID_3_">
		<use xlink:href="#SVGID_2_"  style="overflow:visible;"/>
	</clipPath>
	
		<linearGradient id="SVGID_4_" gradientUnits="userSpaceOnUse" x1="1531.0881" y1="-2406.0535" x2="1531.0881" y2="-2413.373" gradientTransform="matrix(0.866 0.5001 -0.5001 0.866 -2424.7166 1381.2148)">
		<stop  offset="3.200046e-02" style="stop-color:#D9D9D9;stop-opacity:0"/>
		<stop  offset="0.4001" style="stop-color:#F2F2F2"/>
		<stop  offset="1" style="stop-color:#D9D9D9;stop-opacity:0"/>
	</linearGradient>
	<polygon class="st1" points="188.2,111.7 20.6,14.9 24.2,8.5 191.8,105.3 	"/>
	
		<linearGradient id="SVGID_5_" gradientUnits="userSpaceOnUse" x1="1533.4817" y1="-2410.6707" x2="1533.4817" y2="-2425.3101" gradientTransform="matrix(0.866 0.5001 -0.5001 0.866 -2424.7166 1381.2148)">
		<stop  offset="3.200046e-02" style="stop-color:#D9D9D9;stop-opacity:0"/>
		<stop  offset="0.1379" style="stop-color:#E1E1E1;stop-opacity:0.2878"/>
		<stop  offset="0.4001" style="stop-color:#F2F2F2"/>
		<stop  offset="0.6409" style="stop-color:#EFEFEF;stop-opacity:0.5985"/>
		<stop  offset="0.8677" style="stop-color:#E3E3E3;stop-opacity:0.2206"/>
		<stop  offset="1" style="stop-color:#D9D9D9;stop-opacity:0"/>
	</linearGradient>
	<polygon class="st2" points="192.6,108.9 25,12.1 32.3,-0.6 199.9,96.2 	"/>
</g>
<g>
	
		<radialGradient id="SVGID_6_" cx="1636.748" cy="-2387.8289" r="32.4394" gradientTransform="matrix(0.866 0.5001 -1.0001 1.732 -3618.8025 3449.0364)" gradientUnits="userSpaceOnUse">
		<stop  offset="0.3382" style="stop-color:#B5B5B5"/>
		<stop  offset="0.348" style="stop-color:#A1A1A1"/>
		<stop  offset="0.3495" style="stop-color:#B0B0B0"/>
		<stop  offset="0.3716" style="stop-color:#A6A6A6"/>
		<stop  offset="0.3744" style="stop-color:#BFBFBF"/>
		<stop  offset="0.3951" style="stop-color:#B3B3B3"/>
		<stop  offset="0.4076" style="stop-color:#A3A3A3"/>
		<stop  offset="0.4115" style="stop-color:#BABABA"/>
		<stop  offset="0.435" style="stop-color:#B5B5B5"/>
		<stop  offset="0.4359" style="stop-color:#BDBDBD"/>
		<stop  offset="0.454" style="stop-color:#A3A3A3"/>
		<stop  offset="0.4616" style="stop-color:#B3B3B3"/>
		<stop  offset="0.4851" style="stop-color:#ADADAD"/>
		<stop  offset="0.4991" style="stop-color:#C2C2C2"/>
		<stop  offset="0.5086" style="stop-color:#9E9E9E"/>
		<stop  offset="0.521" style="stop-color:#ADADAD"/>
		<stop  offset="0.5353" style="stop-color:#BABABA"/>
		<stop  offset="0.5425" style="stop-color:#A6A6A6"/>
		<stop  offset="0.5584" style="stop-color:#B3B3B3"/>
		<stop  offset="0.5675" style="stop-color:#C7C7C7"/>
		<stop  offset="0.5841" style="stop-color:#ADADAD"/>
		<stop  offset="0.5881" style="stop-color:#A1A1A1"/>
		<stop  offset="0.6043" style="stop-color:#9E9E9E"/>
		<stop  offset="0.62" style="stop-color:#B3B3B3"/>
		<stop  offset="0.6752" style="stop-color:#B3B3B3"/>
		<stop  offset="1" style="stop-color:#B3B3B3"/>
	</radialGradient>
	<path class="st3" d="M204.5,142.1c-11.3,19.6-28.5,30.9-38.3,25.3c-9.8-5.7-8.6-26.2,2.8-45.8c11.3-19.6,28.5-30.9,38.3-25.3
		C217.1,102,215.9,122.5,204.5,142.1z"/>
	
		<linearGradient id="SVGID_7_" gradientUnits="userSpaceOnUse" x1="1625.3246" y1="-2394.4243" x2="1648.1716" y2="-2381.2336" gradientTransform="matrix(0.866 0.5001 -0.5001 0.866 -2424.7166 1381.2148)">
		<stop  offset="0" style="stop-color:#473926"/>
		<stop  offset="1" style="stop-color:#786148"/>
	</linearGradient>
	<path class="st4" d="M195.1,136.7c-5.7,9.8-14,15.6-18.6,13c-4.6-2.6-3.7-12.7,2-22.6s14-15.6,18.6-13
		C201.6,116.8,200.7,126.9,195.1,136.7z"/>
</g>
</svg>
